<?xml version="1.0" encoding="UTF-8"?>
<svg xmlns="http://www.w3.org/2000/svg" xmlns:xlink="http://www.w3.org/1999/xlink" viewBox="0 0 50 50">
<g id="surface53574709">
<path style="fill-rule:nonzero;fill:rgb(53.725493%,53.725493%,53.725493%);fill-opacity:1;stroke-width:4;stroke-linecap:butt;stroke-linejoin:round;stroke:rgb(53.725493%,53.725493%,53.725493%);stroke-opacity:1;stroke-miterlimit:10;" d="M 116.95989 10.326382 C 141.620522 10.326382 161.673618 30.379478 161.673618 55.04011 L 161.673618 116.95989 C 161.673618 141.620522 141.620522 161.673618 116.95989 161.673618 L 55.04011 161.673618 C 30.379478 161.673618 10.326382 141.620522 10.326382 116.95989 L 10.326382 55.04011 C 10.326382 30.379478 30.379478 10.326382 55.04011 10.326382 Z M 17.203301 55.04011 L 17.203301 116.95989 C 17.203301 137.893232 34.106768 154.796699 55.04011 154.796699 L 116.95989 154.796699 C 137.893232 154.796699 154.796699 137.893232 154.796699 116.95989 L 154.796699 55.04011 C 154.796699 34.106768 137.893232 17.203301 116.95989 17.203301 L 55.04011 17.203301 C 34.106768 17.203301 17.203301 34.106768 17.203301 55.04011 Z M 134.165942 44.724731 C 134.165942 48.520791 131.085082 51.601651 127.275269 51.601651 C 123.47921 51.601651 120.39835 48.520791 120.39835 44.724731 C 120.39835 40.914918 123.47921 37.834058 127.275269 37.834058 C 131.085082 37.834058 134.165942 40.914918 134.165942 44.724731 Z M 123.836809 86 C 123.836809 106.864573 106.864573 123.836809 86 123.836809 C 65.135427 123.836809 48.163191 106.864573 48.163191 86 C 48.163191 65.135427 65.135427 48.163191 86 48.163191 C 106.864573 48.163191 123.836809 65.135427 123.836809 86 Z M 55.04011 86 C 55.04011 103.137283 68.862718 116.95989 86 116.95989 C 103.137283 116.95989 116.95989 103.137283 116.95989 86 C 116.95989 68.862718 103.137283 55.04011 86 55.04011 C 68.862718 55.04011 55.04011 68.862718 55.04011 86 Z M 55.04011 86 " transform="matrix(0.284012,0,0,0.284012,0.575,0.575)"/>
<path style=" stroke:none;fill-rule:nonzero;fill:rgb(53.725493%,53.725493%,53.725493%);fill-opacity:1;" d="M 16.207031 3.507812 C 9.203125 3.507812 3.507812 9.203125 3.507812 16.207031 L 3.507812 33.792969 C 3.507812 40.796875 9.203125 46.492188 16.207031 46.492188 L 33.792969 46.492188 C 40.796875 46.492188 46.492188 40.796875 46.492188 33.792969 L 46.492188 16.207031 C 46.492188 9.203125 40.796875 3.507812 33.792969 3.507812 Z M 16.207031 5.460938 L 33.792969 5.460938 C 39.738281 5.460938 44.539062 10.261719 44.539062 16.207031 L 44.539062 33.792969 C 44.539062 39.738281 39.738281 44.539062 33.792969 44.539062 L 16.207031 44.539062 C 10.261719 44.539062 5.460938 39.738281 5.460938 33.792969 L 5.460938 16.207031 C 5.460938 10.261719 10.261719 5.460938 16.207031 5.460938 Z M 36.722656 11.320312 C 35.644531 11.320312 34.769531 12.195312 34.769531 13.277344 C 34.769531 14.355469 35.644531 15.230469 36.722656 15.230469 C 37.804688 15.230469 38.679688 14.355469 38.679688 13.277344 C 38.679688 12.195312 37.804688 11.320312 36.722656 11.320312 Z M 25 14.253906 C 19.074219 14.253906 14.253906 19.074219 14.253906 25 C 14.253906 30.925781 19.074219 35.746094 25 35.746094 C 30.925781 35.746094 35.746094 30.925781 35.746094 25 C 35.746094 19.074219 30.925781 14.253906 25 14.253906 Z M 25 16.207031 C 29.867188 16.207031 33.792969 20.132812 33.792969 25 C 33.792969 29.867188 29.867188 33.792969 25 33.792969 C 20.132812 33.792969 16.207031 29.867188 16.207031 25 C 16.207031 20.132812 20.132812 16.207031 25 16.207031 Z M 25 16.207031 "/>
</g>
</svg>
