<?xml version="1.0" encoding="UTF-8"?>
<svg xmlns="http://www.w3.org/2000/svg" xmlns:xlink="http://www.w3.org/1999/xlink" viewBox="0 0 50 50" width="50px" height="50px">
<g id="surface15686768">
<path style=" stroke:none;fill-rule:nonzero;fill:rgb(50.980395%,50.980395%,50.980395%);fill-opacity:1;" d="M 25 6.667969 C 18.023438 6.667969 8.96875 8.414062 8.96875 8.414062 L 8.945312 8.441406 C 5.769531 8.949219 3.332031 11.679688 3.332031 15 L 3.332031 35.003906 C 3.339844 38.28125 5.726562 41.066406 8.960938 41.574219 L 8.96875 41.585938 C 8.96875 41.585938 18.023438 43.335938 25 43.335938 C 31.976562 43.335938 41.03125 41.585938 41.03125 41.585938 L 41.035156 41.582031 C 44.273438 41.074219 46.664062 38.28125 46.667969 35.003906 L 46.667969 15 C 46.660156 11.722656 44.277344 8.933594 41.039062 8.425781 L 41.03125 8.414062 C 41.03125 8.414062 31.976562 6.667969 25 6.667969 Z M 20 17.332031 L 33.332031 25 L 20 32.667969 Z M 20 17.332031 "/>
</g>
</svg>
