<svg xmlns="http://www.w3.org/2000/svg" viewBox="0 0 50 50"><g id="surface53574709"><path style="fill-rule:nonzero;fill:#898989;fill-opacity:1;stroke-width:4px;stroke-linecap:butt;stroke-linejoin:round;stroke:#898989;stroke-opacity:1;stroke-miterlimit:10" d="M116.96 10.326c24.66 0 44.714 20.053 44.714 44.714v61.92c0 24.66-20.053 44.714-44.714 44.714H55.04c-24.66 0-44.714-20.053-44.714-44.714V55.04c0-24.66 20.053-44.714 44.714-44.714ZM17.203 55.04v61.92c0 20.933 16.904 37.837 37.837 37.837h61.92c20.933 0 37.837-16.904 37.837-37.837V55.04c0-20.933-16.904-37.837-37.837-37.837H55.04c-20.933 0-37.837 16.904-37.837 37.837Zm116.963-10.315c0 3.796-3.08 6.877-6.89 6.877a6.88 6.88 0 0 1-6.878-6.877c0-3.81 3.081-6.89 6.877-6.89 3.81 0 6.89 3.08 6.89 6.89ZM123.836 86c0 20.865-16.971 37.837-37.836 37.837S48.163 106.865 48.163 86c0-20.865 16.972-37.837 37.837-37.837 20.865 0 37.837 16.972 37.837 37.837ZM55.04 86c0 17.137 13.823 30.96 30.96 30.96s30.96-13.823 30.96-30.96S103.137 55.04 86 55.04 55.04 68.863 55.04 86Zm0 0" transform="translate(.575 .575) scale(.28401)"/><path style="stroke:none;fill-rule:nonzero;fill:#898989;fill-opacity:1" d="M16.207 3.508c-7.004 0-12.7 5.695-12.7 12.699v17.586c0 7.004 5.696 12.7 12.7 12.7h17.586c7.004 0 12.7-5.696 12.7-12.7V16.207c0-7.004-5.696-12.7-12.7-12.7Zm0 1.953h17.586c5.945 0 10.746 4.8 10.746 10.746v17.586c0 5.945-4.8 10.746-10.746 10.746H16.207c-5.945 0-10.746-4.8-10.746-10.746V16.207c0-5.945 4.8-10.746 10.746-10.746Zm20.516 5.86a1.955 1.955 0 1 0 .003 3.909 1.955 1.955 0 0 0-.003-3.91ZM25 14.253c-5.926 0-10.746 4.82-10.746 10.746S19.074 35.746 25 35.746 35.746 30.926 35.746 25 30.926 14.254 25 14.254Zm0 1.953A8.779 8.779 0 0 1 33.793 25 8.779 8.779 0 0 1 25 33.793 8.779 8.779 0 0 1 16.207 25 8.779 8.779 0 0 1 25 16.207Zm0 0"/></g></svg>