<svg xmlns="http://www.w3.org/2000/svg" viewBox="0 0 50 50"><path style="stroke:none;fill-rule:nonzero;fill:#898989;fill-opacity:1" d="M41 5c-6.79-.008-10.531 3.797-12.832 11.21 1.203-.444 2.41-.995 3.504-.995 2.3 0 3.066.855 2.738 3.512-.11 1.66-.765 4.34-2.738 7.437C29.699 29.152 27.984 30 27 30c-1.203 0-2.117-1.73-3.102-6.379-.328-1.328-1.093-4.316-1.972-9.957C21.16 8.464 18.613 5.668 15 6c-1.531.11-3.363 1.535-6.43 4.191C6.38 12.184 4.3 13.621 2 15.613l2.191 2.809c2.079-1.438 3.286-1.992 3.614-1.992 1.53 0 2.953 2.433 4.379 7.414 1.203 4.535 2.515 9.07 3.722 13.605 1.86 4.98 4.16 7.414 6.79 7.414 4.378 0 9.632-3.98 15.874-12.168C44.7 24.95 47.781 18.535 48 14c.219-5.973-2.184-8.89-7-9Zm0 0" id="surface53631277"/></svg>