<svg width="43" height="43" viewBox="0 0 43 43" fill="none" xmlns="http://www.w3.org/2000/svg">
<path d="M21.5313 32.532C19.9473 32.532 18.5099 32.2753 17.2193 31.762C15.9286 31.2633 14.8139 30.5593 13.8753 29.65C12.9513 28.7407 12.2326 27.67 11.7193 26.438C11.2206 25.206 10.9713 23.864 10.9713 22.412C10.9713 20.9747 11.2206 19.6473 11.7193 18.43C12.2326 17.2127 12.9586 16.1493 13.8973 15.24C14.8359 14.3307 15.9579 13.6267 17.2633 13.128C18.5686 12.6293 20.0206 12.38 21.6193 12.38C23.1593 12.38 24.5673 12.622 25.8433 13.106C27.1193 13.5753 28.2193 14.2427 29.1433 15.108C30.0673 15.9733 30.7786 16.9927 31.2773 18.166C31.7759 19.3247 32.0253 20.5933 32.0253 21.972C32.0253 23.2773 31.8346 24.392 31.4533 25.316C31.0866 26.24 30.5659 26.944 29.8913 27.428C29.2166 27.912 28.4246 28.154 27.5153 28.154C26.5179 28.154 25.7259 27.8607 25.1393 27.274C24.5526 26.6873 24.2593 25.8293 24.2593 24.7V23.688L24.3253 22.5L24.1273 19.31V17.198H27.1193V24.326C27.1193 24.854 27.2219 25.2207 27.4273 25.426C27.6326 25.6313 27.8819 25.734 28.1753 25.734C28.5126 25.734 28.7986 25.602 29.0333 25.338C29.2826 25.074 29.4733 24.6707 29.6053 24.128C29.7373 23.5707 29.8033 22.8667 29.8033 22.016C29.8033 20.9013 29.6053 19.882 29.2093 18.958C28.8279 18.034 28.2706 17.2347 27.5373 16.56C26.8186 15.8853 25.9533 15.372 24.9413 15.02C23.9439 14.6533 22.8366 14.47 21.6193 14.47C20.4019 14.47 19.2873 14.668 18.2753 15.064C17.2633 15.46 16.3979 16.0173 15.6793 16.736C14.9606 17.44 14.4033 18.276 14.0073 19.244C13.6259 20.212 13.4353 21.268 13.4353 22.412C13.4353 23.5853 13.6259 24.6633 14.0073 25.646C14.3886 26.614 14.9313 27.45 15.6353 28.154C16.3539 28.8727 17.2119 29.43 18.2093 29.826C19.2066 30.222 20.3139 30.42 21.5313 30.42C22.2353 30.42 22.9613 30.3393 23.7093 30.178C24.4573 30.0313 25.1759 29.7893 25.8653 29.452L26.5693 31.476C25.8946 31.8133 25.1026 32.07 24.1933 32.246C23.2986 32.4367 22.4113 32.532 21.5313 32.532ZM20.7393 28.154C19.8006 28.154 18.9426 27.9267 18.1653 27.472C17.4026 27.0027 16.7939 26.35 16.3393 25.514C15.8846 24.6633 15.6573 23.688 15.6573 22.588C15.6573 21.488 15.8773 20.52 16.3173 19.684C16.7719 18.848 17.3806 18.2027 18.1433 17.748C18.9206 17.2787 19.7859 17.044 20.7393 17.044C21.7073 17.044 22.5359 17.264 23.2253 17.704C23.9146 18.144 24.4426 18.7747 24.8093 19.596C25.1759 20.4173 25.3593 21.4147 25.3593 22.588C25.3593 23.7467 25.1833 24.744 24.8313 25.58C24.4793 26.416 23.9586 27.054 23.2693 27.494C22.5946 27.934 21.7513 28.154 20.7393 28.154ZM21.4213 25.624C21.9493 25.624 22.4186 25.5067 22.8293 25.272C23.2546 25.0227 23.5846 24.6707 23.8193 24.216C24.0539 23.7613 24.1713 23.2187 24.1713 22.588C24.1713 21.9427 24.0539 21.4 23.8193 20.96C23.5846 20.52 23.2546 20.1827 22.8293 19.948C22.4186 19.7133 21.9493 19.596 21.4213 19.596C20.8933 19.596 20.4239 19.7133 20.0133 19.948C19.6026 20.1827 19.2799 20.5273 19.0453 20.982C18.8106 21.422 18.6933 21.9573 18.6933 22.588C18.6933 23.2187 18.8106 23.7613 19.0453 24.216C19.2799 24.656 19.6026 25.0007 20.0133 25.25C20.4239 25.4993 20.8933 25.624 21.4213 25.624Z" fill="white"/>
<circle cx="21.5" cy="21.5" r="20.5" stroke="white" stroke-width="2"/>
</svg>
