<svg width="43" height="43" viewBox="0 0 43 43" fill="none" xmlns="http://www.w3.org/2000/svg">
<circle cx="21.5" cy="21.5" r="20.5" stroke="white" stroke-width="2"/>
<path d="M21.5122 11.0833C15.7768 11.0833 11.1078 15.7482 11.1057 21.4836C11.1047 23.317 11.5849 25.1068 12.4953 26.6838L11.0833 31.9166L16.5338 30.6287C18.0536 31.4579 19.7644 31.8932 21.5061 31.8942H21.5102C27.2446 31.8942 31.9115 27.2282 31.9146 21.4938C31.9167 18.7136 30.8356 16.0996 28.871 14.133C26.9064 12.1674 24.2955 11.0843 21.5122 11.0833ZM21.5102 13.1666C23.7352 13.1676 25.8262 14.0351 27.398 15.606C28.9699 17.1789 29.8334 19.2689 29.8313 21.4918C29.8292 26.0793 26.0977 29.8109 21.5081 29.8109C20.1196 29.8098 18.7442 29.4612 17.5327 28.7997L16.8308 28.4172L16.0557 28.6003L14.0049 29.0846L14.5054 27.225L14.7312 26.3909L14.2999 25.6422C13.5728 24.3838 13.188 22.9451 13.1891 21.4836C13.1911 16.8982 16.9237 13.1666 21.5102 13.1666ZM17.8298 16.6822C17.6558 16.6822 17.3745 16.7473 17.136 17.0077C16.8975 17.2671 16.2245 17.8953 16.2245 19.1745C16.2245 20.4536 17.1563 21.6901 17.2865 21.8641C17.4157 22.037 19.0852 24.745 21.7279 25.7866C23.9237 26.6522 24.3697 26.4814 24.8468 26.4377C25.3239 26.395 26.3859 25.81 26.6025 25.2027C26.8192 24.5954 26.8197 24.073 26.7551 23.9657C26.6906 23.8574 26.5171 23.7928 26.2567 23.6626C25.9973 23.5324 24.7191 22.9047 24.4806 22.8183C24.242 22.7318 24.0675 22.6881 23.8946 22.9485C23.7217 23.2089 23.2248 23.7928 23.0727 23.9657C22.9206 24.1397 22.7695 24.1631 22.5091 24.0329C22.2487 23.9016 21.4114 23.6264 20.4177 22.741C19.6447 22.0524 19.1232 21.2029 18.9711 20.9425C18.8201 20.6831 18.9569 20.5406 19.0871 20.4115C19.2038 20.2948 19.3455 20.1078 19.4757 19.9557C19.6048 19.8036 19.6496 19.6953 19.7361 19.5224C19.8226 19.3495 19.7783 19.1969 19.7137 19.0667C19.6491 18.9364 19.1434 17.6525 18.9121 17.1379C18.7173 16.7056 18.5116 16.6956 18.3262 16.6883C18.1751 16.6821 18.0027 16.6822 17.8298 16.6822Z" fill="white"/>
</svg>
