<svg width="43" height="43" fill="none" xmlns="http://www.w3.org/2000/svg"><path d="M21.531 32.532c-1.584 0-3.021-.257-4.312-.77-1.29-.499-2.405-1.203-3.344-2.112a9.675 9.675 0 0 1-2.156-3.212c-.498-1.232-.748-2.574-.748-4.026 0-1.437.25-2.765.748-3.982a9.571 9.571 0 0 1 2.178-3.19c.939-.91 2.06-1.613 3.366-2.112 1.306-.499 2.758-.748 4.356-.748 1.54 0 2.948.242 4.224.726 1.276.47 2.376 1.137 3.3 2.002a8.927 8.927 0 0 1 2.134 3.058c.499 1.159.748 2.427.748 3.806 0 1.305-.19 2.42-.572 3.344-.366.924-.887 1.628-1.562 2.112-.674.484-1.466.726-2.376.726-.997 0-1.79-.293-2.376-.88-.586-.587-.88-1.445-.88-2.574v-1.012l.066-1.188-.198-3.19v-2.112h2.992v7.128c0 .528.103.895.308 1.1.206.205.455.308.748.308.338 0 .624-.132.858-.396.25-.264.44-.667.572-1.21.132-.557.198-1.261.198-2.112 0-1.115-.198-2.134-.594-3.058a6.687 6.687 0 0 0-1.672-2.398c-.718-.675-1.584-1.188-2.596-1.54-.997-.367-2.104-.55-3.322-.55-1.217 0-2.332.198-3.344.594a7.467 7.467 0 0 0-2.596 1.672 7.376 7.376 0 0 0-1.672 2.508c-.381.968-.572 2.024-.572 3.168 0 1.173.19 2.251.572 3.234a7.268 7.268 0 0 0 1.628 2.508 7.51 7.51 0 0 0 2.574 1.672c.998.396 2.105.594 3.322.594.704 0 1.43-.08 2.178-.242a8.692 8.692 0 0 0 2.156-.726l.704 2.024c-.674.337-1.466.594-2.376.77a12.74 12.74 0 0 1-2.662.286Zm-.792-4.378a5.005 5.005 0 0 1-2.574-.682c-.762-.47-1.371-1.122-1.826-1.958-.454-.85-.682-1.826-.682-2.926s.22-2.068.66-2.904c.455-.836 1.064-1.481 1.826-1.936a4.925 4.925 0 0 1 2.596-.704c.968 0 1.797.22 2.486.66.69.44 1.218 1.07 1.584 1.892.367.821.55 1.819.55 2.992 0 1.159-.176 2.156-.528 2.992-.352.836-.872 1.474-1.562 1.914-.674.44-1.518.66-2.53.66Zm.682-2.53c.528 0 .998-.117 1.408-.352a2.55 2.55 0 0 0 .99-1.056c.235-.455.352-.997.352-1.628 0-.645-.117-1.188-.352-1.628a2.44 2.44 0 0 0-.99-1.012 2.787 2.787 0 0 0-1.408-.352c-.528 0-.997.117-1.408.352-.41.235-.733.58-.968 1.034-.234.44-.352.975-.352 1.606 0 .63.118 1.173.352 1.628.235.44.558.785.968 1.034.41.25.88.374 1.408.374Z" fill="#fff"/><circle cx="21.5" cy="21.5" r="20.5" stroke="#fff" stroke-width="2"/></svg>