<svg width="43" height="43" fill="none" xmlns="http://www.w3.org/2000/svg"><circle cx="21.5" cy="21.5" r="20.5" stroke="#fff" stroke-width="2"/><path d="M21.512 11.083c-5.735 0-10.404 4.665-10.406 10.4a10.379 10.379 0 0 0 1.39 5.2l-1.413 5.234 5.45-1.288c1.52.829 3.231 1.264 4.973 1.265h.004c5.735 0 10.401-4.666 10.405-10.4a10.336 10.336 0 0 0-3.044-7.361 10.337 10.337 0 0 0-7.359-3.05Zm-.002 2.084a8.281 8.281 0 0 1 5.888 2.439 8.26 8.26 0 0 1 2.433 5.886c-.002 4.587-3.733 8.319-8.323 8.319a8.332 8.332 0 0 1-3.975-1.011l-.702-.383-.775.183-2.051.485.5-1.86.226-.834-.431-.749a8.312 8.312 0 0 1-1.11-4.158c.001-4.586 3.734-8.317 8.32-8.317Zm-3.68 3.515a.955.955 0 0 0-.694.326c-.238.26-.912.887-.912 2.166 0 1.28.932 2.516 1.063 2.69.129.173 1.798 2.881 4.44 3.923 2.197.865 2.643.694 3.12.65.477-.042 1.539-.627 1.755-1.234.217-.608.218-1.13.153-1.237-.064-.109-.238-.173-.498-.303s-1.538-.758-1.776-.845c-.239-.086-.414-.13-.586.13-.173.26-.67.845-.822 1.018-.152.174-.303.197-.564.067-.26-.131-1.098-.407-2.091-1.292-.773-.689-1.295-1.538-1.447-1.799-.15-.259-.014-.401.116-.53.117-.117.259-.304.389-.456.129-.152.174-.26.26-.434.087-.172.042-.325-.022-.455-.065-.13-.57-1.415-.802-1.93-.195-.431-.4-.441-.586-.449-.15-.006-.323-.006-.496-.006Z" fill="#fff"/></svg>